<svg xmlns="http://www.w3.org/2000/svg" width="60" height="65" viewBox="0 0 60 65">
  <g id="android" transform="translate(-1603 -399)">
    <path id="android-brands" d="M41,56.977V73.784a4.135,4.135,0,0,1-4.3,4.02c-2.391,0-4.7-1.8-4.7-4.02V56.977c0-2.192,2.312-3.991,4.7-3.991A4.17,4.17,0,0,1,41,56.977Zm1.688,22.787a4.46,4.46,0,0,0,4.625,4.3h3.109l.047,8.868c0,5.356,8.625,5.312,8.625,0V84.06h5.813v8.868c0,5.327,8.672,5.341,8.672,0V84.06h3.156a4.451,4.451,0,0,0,4.594-4.3V53.725H42.687Zm38.75-27.447H42.516c0-6.212,4-11.611,9.938-14.427l-2.984-5.124c-.437-.711.672-1.161,1.047-.552l3.031,5.167a22.6,22.6,0,0,1,16.922,0l3.016-5.153c.391-.624,1.484-.16,1.047.552L71.547,37.89C77.438,40.706,81.437,46.105,81.437,52.318ZM54.766,44.262a1.585,1.585,0,0,0-1.641-1.524,1.526,1.526,0,1,0,0,3.048A1.585,1.585,0,0,0,54.766,44.262Zm17.719,0a1.62,1.62,0,1,0-1.594,1.524A1.573,1.573,0,0,0,72.484,44.262ZM87.3,52.985A4.141,4.141,0,0,0,83,56.977V73.784a4.165,4.165,0,0,0,4.3,4.02c2.406,0,4.7-1.8,4.7-4.02V56.977C92,54.741,89.688,52.985,87.3,52.985Z" transform="translate(1571 367.071)" fill="#656565"/>
  </g>
</svg>
