<svg xmlns="http://www.w3.org/2000/svg" width="46.376" height="59.266" viewBox="0 0 46.376 59.266">
  <g id="Group_14" data-name="Group 14" transform="translate(-385.146 -162.861)">
    <g id="Group_13" data-name="Group 13" transform="translate(385.146 162.861)">
      <path id="Path_11" data-name="Path 11" d="M443.4,179.555l-10.428-3.648v38.808l10.428,3.619Z" transform="translate(-397.022 -166.101)" fill="#fff"/>
      <path id="Path_12" data-name="Path 12" d="M395.674,162.861v38.886l9.173,3.183V166.07Z" transform="translate(-387.76 -162.861)" fill="#fff"/>
      <path id="Path_13" data-name="Path 13" d="M424.047,172.786,413.227,169v38.849l10.82,3.755Z" transform="translate(-392.119 -164.386)" fill="#fff"/>
      <path id="Path_14" data-name="Path 14" d="M424.047,183.411l-10.82-3.735v15.171l10.82-3.329Z" transform="translate(-392.119 -167.037)" fill="#fff"/>
      <path id="Path_15" data-name="Path 15" d="M413.14,179.645v15.214l.066-.02V179.668Z" transform="translate(-392.098 -167.029)" fill="#fff"/>
      <path id="Path_16" data-name="Path 16" d="M424,232.261l-.031-23.894-10.727-4.7-.033,8.636v4.559h-.017l-.044,11.564Z" transform="translate(-392.099 -172.995)" fill="#fff"/>
      <path id="Path_17" data-name="Path 17" d="M413.221,215.155l-.017,4.559h.017Z" transform="translate(-392.114 -175.848)" fill="#fff"/>
      <path id="Path_18" data-name="Path 18" d="M392.819,219.063l-7.673,5.982,27.78,9.521,4.147-7.1v-.1Z" transform="translate(-385.146 -176.818)" fill="#fff"/>
      <path id="Path_19" data-name="Path 19" d="M427.622,230.1v.1l.049-.085Z" transform="translate(-395.694 -179.56)" fill="#fff"/>
    </g>
  </g>
</svg>
