<svg xmlns="http://www.w3.org/2000/svg" width="60" height="65" viewBox="0 0 60 65">
  <g id="node" transform="translate(-1603 -246)">
    <path id="node-js-brands" d="M30.687,69.05a5.428,5.428,0,0,1-2.605-.671L19.8,63.672c-1.235-.671-.631-.9-.228-1.032A16.655,16.655,0,0,0,23.314,61a.627.627,0,0,1,.618.052L30.3,64.678a.805.805,0,0,0,.765,0l24.8-13.749a.758.758,0,0,0,.376-.645v-27.5a.763.763,0,0,0-.389-.658L31.063,8.39a.805.805,0,0,0-.765,0L5.521,22.14a.748.748,0,0,0-.389.658V50.283a.708.708,0,0,0,.389.632l6.795,3.766c3.693,1.767,5.949-.31,5.949-2.412V25.132a.7.7,0,0,1,.725-.684h3.142a.706.706,0,0,1,.725.684V52.283c0,4.721-2.686,7.429-7.346,7.429-1.437,0-2.565,0-5.707-1.5l-6.5-3.6A4.982,4.982,0,0,1,.7,50.27V22.785a5,5,0,0,1,2.605-4.347L28.081,4.688a5.634,5.634,0,0,1,5.21,0l24.8,13.762A4.982,4.982,0,0,1,60.7,22.8V50.283a5.013,5.013,0,0,1-2.605,4.347l-24.8,13.749A5.389,5.389,0,0,1,30.687,69.05Zm20.022-27.1c0-5.146-3.626-6.514-11.24-7.481-7.708-.98-8.487-1.483-8.487-3.212,0-1.432.658-3.341,6.365-3.341,5.09,0,6.97,1.058,7.748,4.36a.713.713,0,0,0,.7.542h3.223a.715.715,0,0,0,.524-.219.7.7,0,0,0,.188-.529c-.5-5.688-4.432-8.332-12.381-8.332-7.077,0-11.294,2.863-11.294,7.674,0,5.211,4.2,6.655,10.985,7.3,8.124.761,8.756,1.909,8.756,3.444,0,2.657-2.229,3.792-7.453,3.792-6.567,0-8-1.586-8.487-4.721a.7.7,0,0,0-.712-.58H25.933a.694.694,0,0,0-.712.684c0,4.011,2.269,8.8,13.133,8.8,7.842-.013,12.355-2.992,12.355-8.177Z" transform="translate(1602.3 241.95)" fill="#656565"/>
  </g>
</svg>
