<svg xmlns="http://www.w3.org/2000/svg" width="60" height="62" viewBox="0 0 60 62">
  <g id="py" transform="translate(-1603 -324)">
    <path id="python-brands" d="M58.9,55.317c-1.031-4.276-2.987-7.5-7.152-7.5h-5.37v6.56c0,5.093-4.178,9.383-8.946,9.383h-14.3a7.427,7.427,0,0,0-7.152,7.514V85.361c0,4.013,3.375,6.366,7.152,7.514a23.326,23.326,0,0,0,14.3,0c3.6-1.079,7.152-3.252,7.152-7.514V79.729H30.293V77.847H51.748c4.165,0,5.705-3,7.152-7.5,1.5-4.636,1.433-9.092,0-15.029ZM38.328,83.479a2.819,2.819,0,1,1-2.692,2.809A2.754,2.754,0,0,1,38.328,83.479ZM22.472,61.9h14.3a7.338,7.338,0,0,0,7.152-7.514v-14.1c0-4.013-3.268-7.016-7.152-7.694a42.74,42.74,0,0,0-14.3.014c-6.053,1.107-7.152,3.418-7.152,7.694v5.632H29.637v1.882H9.95c-4.165,0-7.808,2.588-8.946,7.5A28.607,28.607,0,0,0,1,70.346c1.018,4.373,3.442,7.5,7.607,7.5h4.915V71.094A9.248,9.248,0,0,1,22.472,61.9Zm-.9-19.734a2.819,2.819,0,1,1,2.692-2.809A2.754,2.754,0,0,1,21.575,42.17Z" transform="translate(1603.001 292.001)" fill="#656565"/>
  </g>
</svg>
